<mxfile host="app.diagrams.net" agent="Mozilla/5.0 (Windows NT 10.0; Win64; x64) AppleWebKit/537.36 (KHTML, like Gecko) Chrome/135.0.0.0 Safari/537.36" version="26.1.3">
  <diagram name="Side-1" id="iEkT8G8x9b4ex-X_Zswh">
    <mxGraphModel dx="1270" dy="586" grid="1" gridSize="10" guides="1" tooltips="1" connect="1" arrows="1" fold="1" page="1" pageScale="1" pageWidth="827" pageHeight="1169" math="0" shadow="0">
      <root>
        <mxCell id="0" />
        <mxCell id="1" parent="0" />
        <mxCell id="biWUz-ulRwIJiTqeXSXP-100" value="A" style="ellipse;whiteSpace=wrap;html=1;" vertex="1" parent="1">
          <mxGeometry x="370" y="60" width="40" height="40" as="geometry" />
        </mxCell>
        <mxCell id="biWUz-ulRwIJiTqeXSXP-101" value="B" style="ellipse;whiteSpace=wrap;html=1;" vertex="1" parent="1">
          <mxGeometry x="260" y="170" width="40" height="40" as="geometry" />
        </mxCell>
        <mxCell id="biWUz-ulRwIJiTqeXSXP-102" value="D" style="ellipse;whiteSpace=wrap;html=1;" vertex="1" parent="1">
          <mxGeometry x="480" y="170" width="40" height="40" as="geometry" />
        </mxCell>
        <mxCell id="biWUz-ulRwIJiTqeXSXP-103" value="C" style="ellipse;whiteSpace=wrap;html=1;" vertex="1" parent="1">
          <mxGeometry x="370" y="140" width="40" height="40" as="geometry" />
        </mxCell>
        <mxCell id="biWUz-ulRwIJiTqeXSXP-104" value="" style="endArrow=none;html=1;rounded=0;entryX=1;entryY=0.5;entryDx=0;entryDy=0;exitX=0;exitY=0.5;exitDx=0;exitDy=0;" edge="1" parent="1" source="biWUz-ulRwIJiTqeXSXP-103" target="biWUz-ulRwIJiTqeXSXP-101">
          <mxGeometry width="50" height="50" relative="1" as="geometry">
            <mxPoint x="320" y="320" as="sourcePoint" />
            <mxPoint x="370" y="270" as="targetPoint" />
          </mxGeometry>
        </mxCell>
        <mxCell id="biWUz-ulRwIJiTqeXSXP-105" value="" style="endArrow=none;html=1;rounded=0;entryX=0;entryY=0.5;entryDx=0;entryDy=0;exitX=1;exitY=0;exitDx=0;exitDy=0;" edge="1" parent="1" source="biWUz-ulRwIJiTqeXSXP-101" target="biWUz-ulRwIJiTqeXSXP-100">
          <mxGeometry width="50" height="50" relative="1" as="geometry">
            <mxPoint x="380" y="170" as="sourcePoint" />
            <mxPoint x="310" y="200" as="targetPoint" />
          </mxGeometry>
        </mxCell>
        <mxCell id="biWUz-ulRwIJiTqeXSXP-106" value="" style="endArrow=none;html=1;rounded=0;entryX=0;entryY=0.5;entryDx=0;entryDy=0;exitX=1;exitY=0.5;exitDx=0;exitDy=0;" edge="1" parent="1" source="biWUz-ulRwIJiTqeXSXP-103" target="biWUz-ulRwIJiTqeXSXP-102">
          <mxGeometry width="50" height="50" relative="1" as="geometry">
            <mxPoint x="390" y="180" as="sourcePoint" />
            <mxPoint x="320" y="210" as="targetPoint" />
          </mxGeometry>
        </mxCell>
        <mxCell id="biWUz-ulRwIJiTqeXSXP-107" value="" style="endArrow=none;html=1;rounded=0;entryX=0.5;entryY=1;entryDx=0;entryDy=0;" edge="1" parent="1" target="biWUz-ulRwIJiTqeXSXP-100">
          <mxGeometry width="50" height="50" relative="1" as="geometry">
            <mxPoint x="390" y="140" as="sourcePoint" />
            <mxPoint x="330" y="220" as="targetPoint" />
          </mxGeometry>
        </mxCell>
      </root>
    </mxGraphModel>
  </diagram>
</mxfile>
